<svg id="Layer_1" xmlns="http://www.w3.org/2000/svg" viewBox="0 0 1276 295"><style>.st0{fill:#D1926D;} .st1{fill:none;stroke:#D1926D;stroke-width:5;stroke-miterlimit:10;}</style><path class="st0" d="M488.7 292c-14.2 0-28.3-.5-42.5.2-10.2.5-17-7.4-16.2-17 .8-9.5 2.9-18.7 5-28 6-26.1 12.7-52.1 22.6-77.1 3.9-9.8 8.4-19.1 16.5-26.4 15.6-14 6.1-44.2-10.4-48-3.6-.8-7.1-1.5-10.8-1.6-3-.1-6 0-8.9-.8-2.3-.7-4.8-1.1-5.4-3.8-.5-2.5 1.1-4.4 2.8-6.1 3.5-3.4 8.1-5.2 12.2-7.8 4.5-2.8 9.1-5.5 13.6-8.3 6.1-3.9 7.4-9.1 4-15.4-2-3.7-4.9-6.7-8-9.5-2.3-2.1-4.8-4.2-6.7-6.7-4-5-2.4-8.8 4-9.6 3.3-.4 6.7-.3 10 .1 7.1.9 11.4-.9 13.1-7.5 1.5-5.9 4.7-7.4 10.1-6.8 4 .5 7.6.5 7.6-5.3 0-2.1 1.6-4.1 4.1-4.5 2.6-.3 4.8.7 5.7 3.1 2.3 6.3 7.1 6.8 13 6.8H846c13 0 13 0 13 12.8v45.5c0 8.3-3.3 11.7-11.7 11.7-19.5.1-39 0-58.5 0-2.5 0-4.7.1-6.7 2.3-2.2 2.5-5.5 2.8-8.8 2.8-14-.1-28-.1-42 0-16.8.1-29.1 9.7-31.3 26.3-2.1 16-11.1 26.5-23.9 34.4-19.7 12.2-41.2 16.2-64.2 13-10.5-1.5-21.2-2.3-31.9-.8-5.1.8-8.3 2.8-9.9 8.2-8.8 29.8-18.6 59.4-25.6 89.7-1.2 5.2-1.9 10.5-1.7 15.8.1 3 .1 6-.1 9-.6 7.2-2.9 9.3-10.1 9.3h-43.9zm129.7-186.6c-5.3 2.3-9.7 5.6-13.4 9.8-10.2 11.6-7.2 24.1 7.1 29.7 19.5 7.7 50.6.1 64.5-15.7 9.9-11.4 6.9-23.8-7.2-29.4-8.8-3.5-17.9-3.4-27.1-2.5-2.3.2-3.5 1.5-4.4 3.4-5.4 11.3-6.3 22 6.9 27.7 1.6.7 4 1.9 3.3 3.8-.8 2.2-3.4 1.4-5.3 1.2-13.8-1.5-24.7-13.8-24.4-28z"/><path class="st1" d="M926 147.9h349M0 147.2h349"/></svg>