<?xml version="1.0" encoding="utf-8"?>
<!-- Generator: Adobe Illustrator 19.0.0, SVG Export Plug-In . SVG Version: 6.00 Build 0)  -->
<svg version="1.1" id="Layer_1" xmlns="http://www.w3.org/2000/svg" xmlns:xlink="http://www.w3.org/1999/xlink" x="0px" y="0px"
	 viewBox="0 0 533.8 167" style="enable-background:new 0 0 533.8 167;" xml:space="preserve">
<style type="text/css">
	.st0{fill:#AF3A30;}
	.st1{fill:none;stroke:#AF3A30;stroke-width:3;stroke-miterlimit:10;}
</style>
<g>
	<g id="XMLID_22_">
		<g>
			<path class="st0" d="M369.2,137.3c2,1,3.3,3,3.3,5.4c0,1.7-0.7,3.2-1.8,4.3l3.9,19.1h-16.5L362,147c-1.1-1.1-1.8-2.6-1.8-4.3
				c0-2.4,1.3-4.3,3.2-5.4c-0.1-0.2-0.2-0.5-0.3-0.8c-0.1-0.2-0.1-0.5-0.1-0.8l0-1.3v-2.6v-5.3v-21V69.5l6.5-2.4V99v21v10.5v5.2
				C369.6,136.3,369.4,136.8,369.2,137.3z"/>
			<path class="st0" d="M140.4,56.7L266.7,0.9L393,56.7l-60.7,22.9v-11c0-2.2-1.2-3.8-2.2-4.9c-1-1.1-2.1-1.8-3.2-2.5
				c-2.2-1.3-4.4-2.1-6.5-2.9c-4.4-1.5-8.7-2.5-13.1-3.3c-8.8-1.6-17.6-2.5-26.5-2.9c-17.7-0.8-35.4-0.3-53,2.6
				c-4.4,0.8-8.8,1.7-13.2,3.1c-2.2,0.7-4.4,1.5-6.5,2.6c-1.1,0.6-2.2,1.2-3.2,2c-1.1,0.9-2.2,1.8-3,3.6c-0.2,0.4-0.3,0.9-0.4,1.4
				c0,0.2-0.1,0.5-0.1,0.8l0,0.4v0.2v1.7v3.3v5.9L140.4,56.7z"/>
			<path class="st0" d="M213.9,83.3v18.3c0,0.7,2.5,1.3,5.5,1.3c3,0,5.5-0.6,5.5-1.3V83.3V81v-1.1c0.5-0.2,1.1-0.3,1.7-0.5
				c3.7-0.9,8.2-1.5,12.6-1.9c1-0.1,1.6-1.8,1.1-3.7c-0.4-1.9-1.7-3.5-2.8-3.4c-4.9,0.5-9.6,1.1-14.8,2.3c-1.3,0.3-2.6,0.7-4.2,1.3
				c-0.8,0.3-1.6,0.7-2.5,1.3c-0.4,0.3-0.9,0.7-1.4,1.3c-0.4,0.6-0.8,1.2-0.8,2L213.9,83.3z M206.9,147.6v-1.6V93.4V80.2v-6.6v-3.3
				v-1.7v-0.2v0c0,0,0,0,0,0c0,0,0-0.1,0.1-0.2c0.3-0.7,1.9-2,3.6-2.8c1.7-0.9,3.7-1.6,5.7-2.2c4-1.3,8.2-2.2,12.4-2.9
				c17-2.8,34.5-3.4,51.8-2.6c8.6,0.4,17.3,1.3,25.7,2.8c4.2,0.8,8.4,1.7,12.3,3.1c1.9,0.7,3.8,1.5,5.5,2.4c0.8,0.5,1.5,1,2,1.5
				c0.5,0.5,0.6,0.9,0.6,0.9v52.5v26.3v0.2c-0.6,0.2-1.4,0.5-2.2,0.7c-2,0.4-4.1,0.8-6.2,1.1c-4.2,0.6-8.6,0.9-12.9,1.2
				c-17.4,1.1-34.8,1.3-52.3,1c-8.7-0.2-17.4-0.5-26.1-1.1c-4.3-0.3-8.6-0.7-12.9-1.3c-2.1-0.3-4.2-0.7-6-1.2
				C207.5,147.8,207.2,147.7,206.9,147.6z"/>
		</g>
	</g>
</g>
<line id="XMLID_158_" class="st1" x1="18" y1="88.2" x2="137" y2="88.2"/>
<line id="XMLID_160_" class="st1" x1="398" y1="88.2" x2="517" y2="88.2"/>
</svg>
