<?xml version="1.0" encoding="utf-8"?>
<!-- Generator: Adobe Illustrator 19.2.1, SVG Export Plug-In . SVG Version: 6.00 Build 0)  -->
<svg version="1.1" id="Layer_1" xmlns="http://www.w3.org/2000/svg" xmlns:xlink="http://www.w3.org/1999/xlink" x="0px" y="0px"
	 viewBox="0 0 496 86.7" style="enable-background:new 0 0 496 86.7;" xml:space="preserve">
<style type="text/css">
	.st0{display:none;}
	.st1{fill:#FFFFFF;}
	.st2{fill:none;stroke:#000000;stroke-width:6;stroke-miterlimit:10;}
	.st3{fill:none;stroke:#000000;stroke-width:7;stroke-miterlimit:10;}
	.st4{fill:none;stroke:#FF0000;stroke-width:2;stroke-miterlimit:10;}
	.st5{fill:none;stroke:#FFFFFF;stroke-width:6;stroke-miterlimit:10;}
</style>
<rect x="-123" y="-206.3" class="st0" width="640" height="480"/>
<g>
	<g>
		<g>
			<path class="st1" d="M19.9,19.7c9.5,0,15.2,5.4,15.2,14.4v12.9c0,7.8-6,12.9-15.3,12.9H5V19.7H19.9z M26.2,46.9V33.8
				c0-4.2-1.7-5.6-6.3-5.6h-6v23h5.9C24.2,51.3,26.2,49.9,26.2,46.9z"/>
			<path class="st1" d="M72.4,50.5l7.6-3.7c1.3,3.3,2.8,4.5,5.8,4.5c3.9,0,5.4-1.3,5.4-4.8V19.7h8.9v26.6c0,8.6-5.1,13.5-14.1,13.5
				C79.3,59.8,74.5,56.6,72.4,50.5z"/>
			<path class="st1" d="M124.5,19.7l14.4,40.2h-9.3l-3.4-9.3h-10.5l-3.2,9.3h-9.3l14.3-40.2H124.5z M121,34.3l-2.5,7.9h4.9L121,34.3
				z"/>
			<path class="st1" d="M165.9,43.3V19.7h8.9v40.2h-9l-13.3-23.2v23.2h-8.9V19.7h8.6L165.9,43.3z"/>
			<path class="st1" d="M206.2,59.8l-14.3-40.2h9.9l8.9,26.8l8.9-26.8h9.9l-14.3,40.2H206.2z"/>
			<path class="st1" d="M250.7,60.7c-9.3,0-16-5.9-16-14.2V19.7h9.5v26.9c0,3.4,2.4,5.3,6.6,5.3c4.3,0,6.6-1.9,6.6-5.3l-0.1-26.9
				h9.5v26.9C266.8,54.7,260.1,60.7,250.7,60.7z"/>
			<path class="st1" d="M281.6,33.9l12.6-14.2h11.6l-16.7,18.8l17.8,21.4h-11.4l-12.2-15l-1.7,1.9v13.1h-8.9V19.7h8.9V33.9z"/>
			<path class="st1" d="M320,19c9.3,0,15.9,5.8,15.9,14v13.5c0,8.2-6.7,14.1-15.9,14.1s-15.9-5.8-15.9-14.1V33
				C304.1,24.8,310.7,19,320,19z M320,51.7c4.2,0,6.6-1.9,6.6-5.3V33c0-3.5-2.1-5.2-6.6-5.2c-4.4,0.1-6.5,1.8-6.5,5.2v13.5
				C313.5,49.8,315.8,51.7,320,51.7z"/>
			<path class="st1" d="M337.5,50.5l7.6-3.7c1.3,3.3,2.8,4.5,5.8,4.5c3.9,0,5.4-1.3,5.4-4.8V19.7h8.9v26.6c0,8.6-5.1,13.5-14.1,13.5
				C344.4,59.8,339.7,56.6,337.5,50.5z"/>
			<path class="st1" d="M398.4,19.7v8.6H380v7.1h16.5v8.5H380v7.4h18.4v8.6h-27.3V19.7H398.4z"/>
			<path class="st1" d="M418,59.8l-14.3-40.2h9.9l8.9,26.8l8.9-26.8h9.9L427,59.8H418z"/>
			<path class="st1" d="M455.5,59.8h-9V19.7h9V59.8z"/>
			<path class="st1" d="M483.4,45.9l9,3.6c-2.3,7-8.1,10.9-16.2,10.9c-10.2,0-15.9-5.5-15.9-15.1v-11c0-9.7,5.9-15.5,15.9-15.5
				c8.1,0,13.9,3.8,16.2,10.9l-9,3.6c-0.7-4.1-2.5-5.6-7.1-5.6c-5.5,0-6.9,1.3-6.9,6.6v10.8c0,5.1,1.4,6.4,6.6,6.4
				C480.9,51.5,482.7,50.1,483.4,45.9z"/>
			<path class="st1" d="M68.3,19.7v8.6H49.9v7.1h16.5v8.5H49.9v7.4h18.4v8.6H41V19.7H68.3z"/>
		</g>
		<g>
			<path class="st1" d="M311.5,80.5c0,2.6-2.1,4.4-5.2,4.4c-2.6,0-4.7-1.3-5.7-3.5l2.6-1.3c0.7,1.4,1.7,2,3.1,2
				c1.4,0,2.2-0.6,2.2-1.6c0-1-0.7-1.5-2.5-1.7c-3.2-0.3-5.2-2.1-5.2-4.6c0-2.5,2.2-4.4,5.1-4.4c2.5,0,4.5,1.2,5.7,3.3l-2.5,1.3
				c-0.7-1.3-1.7-2-3.1-2c-1.3,0-2.2,0.6-2.2,1.7c0,0.9,0.9,1.6,2.5,1.8C309.6,76.5,311.4,78,311.5,80.5z"/>
			<path class="st1" d="M315.7,70.1v6.1h5v-6.1h2.9v14.5h-2.9V79h-5v5.6h-2.9V70.1H315.7z"/>
			<path class="st1" d="M331.3,69.8c3.4,0,5.8,2.1,5.8,5v5c0,2.9-2.4,5-5.8,5c-3.3,0-5.7-2.1-5.7-5v-5
				C325.5,71.9,327.9,69.8,331.3,69.8z M331.3,82.1c1.7,0,2.7-0.8,2.7-2.2v-5c0-1.4-0.9-2.2-2.7-2.2c-1.8,0-2.6,0.7-2.6,2.2v5
				C328.6,81.2,329.6,82.1,331.3,82.1z"/>
			<path class="st1" d="M344.5,69.8c3.4,0,5.8,2.1,5.8,5v5c0,2.9-2.4,5-5.8,5c-3.3,0-5.7-2.1-5.7-5v-5
				C338.7,71.9,341.1,69.8,344.5,69.8z M344.5,82.1c1.7,0,2.7-0.8,2.7-2.2v-5c0-1.4-0.9-2.2-2.7-2.2c-1.8,0-2.6,0.7-2.6,2.2v5
				C341.8,81.2,342.8,82.1,344.5,82.1z"/>
			<path class="st1" d="M351.1,70.1h11.3v2.8H358v11.7h-2.9V72.9h-4.1V70.1z"/>
			<path class="st1" d="M367.2,84.6h-2.9V70.1h2.9V84.6z"/>
			<path class="st1" d="M377.6,79.5v-9.4h2.9v14.5h-3l-5.3-9.2v9.2h-2.9V70.1h2.9L377.6,79.5z"/>
			<path class="st1" d="M382.4,79.3v-3.7c0-3.4,2.3-5.7,5.8-5.7c2.6,0,4.4,1.1,5.3,3.2l-2.8,1.2c-0.4-1.2-1-1.6-2.5-1.6
				c-2,0-2.8,0.8-2.8,2.8v3.7c0,1.9,0.8,2.8,2.9,2.8c2,0,2.7-0.7,2.7-2.7v-0.4h-3.6v-2.6h6.6v3.1c0,3.5-2.1,5.6-5.7,5.6
				S382.4,82.7,382.4,79.3z"/>
			<path class="st1" d="M407.6,70.1l5.2,14.5h-3l-1.2-3.5h-4.2l-1.2,3.5h-3l5.1-14.5H407.6z M406.4,74.6l-1.2,3.9h2.4L406.4,74.6z"
				/>
			<path class="st1" d="M422.2,80l2.9,1.2c-0.9,2.4-2.9,3.7-5.8,3.7c-3.7,0-5.8-2-5.8-5.5v-4.1c0-3.5,2.1-5.6,5.8-5.6
				c2.9,0,4.9,1.3,5.8,3.7l-2.9,1.2c-0.3-1.4-1.1-2-2.8-2c-2.2,0-2.8,0.6-2.8,2.7v4c0,2,0.6,2.6,2.7,2.6
				C421.1,82,421.9,81.4,422.2,80z"/>
			<path class="st1" d="M432.4,70.1l5.2,14.5h-3l-1.2-3.5h-4.2l-1.2,3.5h-3l5.1-14.5H432.4z M431.2,74.6l-1.2,3.9h2.4L431.2,74.6z"
				/>
			<path class="st1" d="M444.4,70.1c3.4,0,5.4,1.9,5.4,5.1V80c0,2.8-2.1,4.6-5.5,4.6h-5.3V70.1H444.4z M446.9,80v-4.9
				c0-1.7-0.7-2.3-2.5-2.3h-2.5v9h2.4C446.1,81.9,446.9,81.2,446.9,80z"/>
			<path class="st1" d="M461.7,70.1v2.8h-6.8v3.1h6.1v2.7h-6.1v3.2h6.8v2.8H452V70.1H461.7z"/>
			<path class="st1" d="M466.9,70.1l3.6,7.7l3.6-7.7h3.1v14.5h-2.9v-8.9l-2.8,6.3h-2.3l-2.8-6.3v8.9h-2.9l0-14.5H466.9z"/>
			<path class="st1" d="M481.8,70.1l2.8,5.8l3-5.8h3.2l-4.6,8.6l0,5.9h-3v-5.9l-4.7-8.6H481.8z"/>
		</g>
	</g>
	<line class="st2" x1="320" y1="33.3" x2="320" y2="13.3"/>
	<line class="st2" x1="320.3" y1="65.7" x2="320.3" y2="45.7"/>
	<line class="st3" x1="494" y1="39.7" x2="325.7" y2="39.7"/>
	<line class="st3" x1="316.7" y1="39.7" x2="191.3" y2="40.3"/>
	<path class="st4" d="M318.3,40.7c0-1.1,0.9-2,2-2c1.1,0,2,0.9,2,2c0,1.1-1.9,2-3,2C318.2,42.7,318.3,41.8,318.3,40.7z"/>
</g>
<line class="st5" x1="480.7" y1="12.3" x2="486" y2="4.7"/>
</svg>
