<svg id="Layer_1" data-name="Layer 1" xmlns="http://www.w3.org/2000/svg" viewBox="0 0 492.34 88.96"><defs><style>.cls-1{fill:#fff;}.cls-2,.cls-3,.cls-4{fill:none;}.cls-2{stroke:#fff;stroke-width:6px;}.cls-2,.cls-4{stroke-miterlimit:10;}.cls-4{stroke:red;stroke-width:2px;}</style></defs><title>logo</title><path class="cls-1" d="M313.74,85.87c0,2.56-2.11,4.35-5.16,4.35a6,6,0,0,1-5.7-3.46l2.58-1.28a3.28,3.28,0,0,0,3.11,2c1.39,0,2.18-.62,2.18-1.64s-0.73-1.49-2.52-1.73C305,83.78,303,82.05,303,79.56s2.24-4.39,5.14-4.39a6.15,6.15,0,0,1,5.67,3.35l-2.54,1.32a3.3,3.3,0,0,0-3.14-2c-1.34,0-2.18.64-2.18,1.68s0.88,1.56,2.52,1.81C311.86,81.84,313.65,83.37,313.74,85.87Z" transform="translate(-2 -1.29)"/><path class="cls-1" d="M318,75.44v6.12h5V75.44h2.88V89.94H323V84.31h-5v5.63h-2.88V75.44H318Z" transform="translate(-2 -1.29)"/><path class="cls-1" d="M333.53,75.16c3.37,0,5.76,2.07,5.76,5v5c0,2.92-2.41,5-5.76,5s-5.74-2.09-5.74-5v-5C327.79,77.21,330.16,75.16,333.53,75.16Zm0,12.22c1.71,0,2.67-.81,2.67-2.18v-5c0-1.43-.9-2.15-2.67-2.15s-2.65.75-2.65,2.15v5C330.88,86.57,331.84,87.38,333.53,87.38Z" transform="translate(-2 -1.29)"/><path class="cls-1" d="M346.73,75.16c3.37,0,5.76,2.07,5.76,5v5c0,2.92-2.41,5-5.76,5s-5.74-2.09-5.74-5v-5C341,77.21,343.36,75.16,346.73,75.16Zm0,12.22c1.71,0,2.67-.81,2.67-2.18v-5c0-1.43-.9-2.15-2.67-2.15s-2.65.75-2.65,2.15v5C344.09,86.57,345,87.38,346.73,87.38Z" transform="translate(-2 -1.29)"/><path class="cls-1" d="M353.34,75.44h11.28v2.79h-4.31V89.94h-2.88V78.23h-4.1V75.44Z" transform="translate(-2 -1.29)"/><path class="cls-1" d="M369.45,89.94h-2.9V75.44h2.9V89.94Z" transform="translate(-2 -1.29)"/><path class="cls-1" d="M379.83,84.8V75.44h2.88V89.94h-3l-5.27-9.21v9.21h-2.88V75.44h2.86Z" transform="translate(-2 -1.29)"/><path class="cls-1" d="M384.63,84.59V80.86c0-3.41,2.28-5.65,5.8-5.65a5.3,5.3,0,0,1,5.29,3.24l-2.77,1.2c-0.45-1.17-1-1.56-2.52-1.56-2,0-2.82.81-2.82,2.77v3.69c0,1.94.83,2.75,2.88,2.75s2.67-.68,2.67-2.71V84.14h-3.65V81.5h6.63v3.09c0,3.5-2.11,5.59-5.67,5.59S384.63,88,384.63,84.59Z" transform="translate(-2 -1.29)"/><path class="cls-1" d="M409.84,75.44L415,89.94h-3l-1.24-3.48h-4.22l-1.19,3.48h-3l5.14-14.51h2.37ZM408.67,80l-1.22,3.86h2.41Z" transform="translate(-2 -1.29)"/><path class="cls-1" d="M424.47,85.32l2.92,1.17c-0.87,2.41-2.92,3.73-5.78,3.73-3.67,0-5.76-2-5.76-5.46v-4.1c0-3.54,2.13-5.61,5.76-5.61,2.86,0,4.91,1.32,5.78,3.73L424.47,80c-0.32-1.43-1.07-2-2.82-2-2.18,0-2.77.58-2.77,2.69v4c0,2,.6,2.6,2.69,2.6C423.38,87.3,424.15,86.75,424.47,85.32Z" transform="translate(-2 -1.29)"/><path class="cls-1" d="M434.69,75.44l5.16,14.51h-3l-1.24-3.48h-4.22l-1.19,3.48h-3l5.14-14.51h2.37ZM433.51,80l-1.22,3.86h2.41Z" transform="translate(-2 -1.29)"/><path class="cls-1" d="M446.67,75.44c3.39,0,5.42,1.92,5.42,5.12v4.8c0,2.79-2.13,4.59-5.46,4.59h-5.29V75.44h5.33Zm2.54,9.92V80.49c0-1.66-.7-2.3-2.54-2.3h-2.45v9h2.41C448.38,87.19,449.21,86.57,449.21,85.36Z" transform="translate(-2 -1.29)"/><path class="cls-1" d="M464,75.44v2.75H457.1v3.07h6.14V84H457.1v3.2H464v2.75h-9.73V75.44H464Z" transform="translate(-2 -1.29)"/><path class="cls-1" d="M469.2,75.44l3.65,7.7,3.63-7.7h3.14V89.94h-2.88V81L474,87.36h-2.26L469,81v8.92h-2.88l0-14.51h3.14Z" transform="translate(-2 -1.29)"/><path class="cls-1" d="M484,75.44l2.82,5.8,3-5.8H493l-4.63,8.62,0,5.89h-3V84.06l-4.74-8.62H484Z" transform="translate(-2 -1.29)"/><line class="cls-2" x1="480.67" y1="9.38" x2="486" y2="1.71"/><polygon class="cls-3" points="147 43.69 148.74 43.69 147 40.66 147 43.69"/><path class="cls-3" d="M310,31.34v6.33h0v7.14c0,3.37,1.89,5.26,6.09,5.26,0.12,0-.09,0-0.09,0v0c4-.1,7-2,7-5.24V38h0V31.34c0-3.48-2.56-5.34-7-5.34h0v0.14C311.58,26.2,310,27.92,310,31.34Z" transform="translate(-2 -1.29)"/><polygon class="cls-3" points="114.97 38.35 113.27 43.76 116.62 43.75 114.97 38.35"/><polygon class="cls-3" points="117.39 46.71 116.62 43.97 113.27 44.09 112.48 46.71 117.39 46.71"/><polygon class="cls-3" points="160 43.67 157.89 43.67 160 47.33 160 43.67"/><polygon class="cls-3" points="202.97 43.58 198.37 43.59 200.68 50.52 202.97 43.58"/><path class="cls-3" d="M242.64,57.18c4.25,0,6.66-1.89,6.66-5.32l-0.08-7.09L236,44.8v7.06C236,55.23,238.45,57.18,242.64,57.18Z" transform="translate(-2 -1.29)"/><path class="cls-3" d="M16.79,57C21.16,57,23,55.23,23,52.28V45.22l-12,0V57h5.79Z" transform="translate(-2 -1.29)"/><polygon class="cls-3" points="420.78 43.71 416.27 43.71 418.53 50.52 420.78 43.71"/><path class="cls-3" d="M23,32.17C23,28,21.52,27,16.91,27H11V38.25l12,0V32.17Z" transform="translate(-2 -1.29)"/><path class="cls-1" d="M23,52.28c0,3-1.84,4.72-6.21,4.72H11V45.25l-9,0V65H16.79C26.07,65,32,60.08,32,52.28V45.21l-9,0v7.06Z" transform="translate(-2 -1.29)"/><path class="cls-1" d="M16.91,18H2V38.26l9,0V27h5.91C21.52,27,23,28,23,32.17v6.06l9,0V32.35C32,23.37,26.36,18,16.91,18Z" transform="translate(-2 -1.29)"/><path class="cls-1" d="M87,51.81c0,3.48-1.38,4.78-5.28,4.78-3,0-4.44-1.18-5.74-4.49l-7.59,3.72C70.52,62,75.2,65.16,82,65.16c9,0,14-4.9,14-13.53V45.08l-9,0v6.71Z" transform="translate(-2 -1.29)"/><polygon class="cls-1" points="85 16.71 85 36.81 94 36.79 94 16.71 85 16.71"/><polygon class="cls-1" points="111.36 16.71 104.22 36.78 113.27 36.76 114.97 31.36 116.62 36.75 125.67 36.74 118.51 16.71 111.36 16.71"/><polygon class="cls-1" points="117.39 46.71 112.48 46.71 113.27 43.98 104.22 43.81 97.07 63.71 106.4 63.71 109.65 54.71 120.16 54.71 123.53 63.71 132.86 63.71 125.67 43.65 116.62 43.93 117.39 46.71"/><polygon class="cls-1" points="160 16.71 160 36.67 169 36.65 169 16.71 160 16.71"/><polygon class="cls-1" points="138 63.71 147 63.71 147 43.69 138 43.71 138 63.71"/><polygon class="cls-1" points="146.21 16.71 138 16.71 138 36.71 147 36.69 147 33.66 148.49 36.69 157.86 36.67 146.21 16.71"/><polygon class="cls-1" points="160 47.33 157.81 43.67 148.28 43.61 159.79 63.71 169 63.71 169 43.65 160 43.67 160 47.33"/><polygon class="cls-1" points="190.76 16.71 180.9 16.71 187.98 36.61 197.37 36.59 190.76 16.71"/><polygon class="cls-1" points="211.54 16.71 204.97 36.58 214.34 36.56 221.4 16.71 211.54 16.71"/><polygon class="cls-1" points="200.68 50.52 198.37 43.59 188.98 43.52 196.19 63.71 205.11 63.71 212.34 43.48 202.97 43.54 200.68 50.52"/><polygon class="cls-1" points="247.28 16.71 247.43 36.49 257 36.47 257 16.71 247.28 16.71"/><polygon class="cls-1" points="234 16.71 225 16.71 225 36.53 234 36.52 234 16.71"/><path class="cls-1" d="M249.34,51.87c0,3.43-2.45,5.32-6.7,5.32S236,55.23,236,51.87V44.8l-9,0v7C227,60.14,233.64,66,243,66s16-6,16-14.18V44.76l-9.57,0Z" transform="translate(-2 -1.29)"/><polygon class="cls-1" points="263 63.71 272 63.71 272 50.76 273.52 48.79 285.49 63.71 296.89 63.71 280.05 43.35 263 43.46 263 63.71"/><polygon class="cls-1" points="295.83 16.71 284.25 16.71 272 30.94 272 16.71 263 16.71 263 36.46 280.05 36.43 279.19 35.49 295.83 16.71"/><rect class="cls-1" x="354" y="16.71" width="9" height="20"/><path class="cls-1" d="M356,51.81c0,3.48-1.31,4.78-5.21,4.78-3,0-4.41-1.18-5.71-4.49l-7.58,3.72c2.13,6.14,6.75,9.33,13.54,9.33,9,0,14-4.9,14-13.53V45h-9v6.81Z" transform="translate(-2 -1.29)"/><polygon class="cls-1" points="369 63.71 396 63.71 396 55.71 378 55.71 378 47.71 395 47.71 395 43.71 369 43.71 369 63.71"/><polygon class="cls-1" points="378 32.71 378 25.71 396 25.71 396 16.71 369 16.71 369 36.71 395 36.71 395 32.71 378 32.71"/><polygon class="cls-1" points="420.53 50.52 418.27 43.71 408.87 43.71 416.05 63.71 424.96 63.71 432.14 43.71 422.78 43.71 420.53 50.52"/><polygon class="cls-1" points="429.39 16.71 422.78 36.71 432.14 36.71 439.26 16.71 429.39 16.71"/><polygon class="cls-1" points="411.62 16.71 401.75 16.71 408.87 36.71 418.27 36.71 411.62 16.71"/><rect class="cls-1" x="445" y="16.71" width="9" height="20"/><rect class="cls-1" x="445" y="43.71" width="9" height="20"/><path class="cls-1" d="M477.86,56.83c-5.26,0-6.86-1.3-6.86-6.38V45h-9v5.63c0,9.63,5.92,15.12,16.08,15.12,8.09,0,13.95-3.84,16.25-10.87l-9.07-3.6C484.56,55.41,482.7,56.83,477.86,56.83Z" transform="translate(-2 -1.29)"/><path class="cls-1" d="M471,32.64c0-5.32,1.6-6.62,7.1-6.62,4.61,0,6.5,1.42,7.21,5.55l9-3.6c-2.3-7-8.2-10.87-16.29-10.87C468,17.11,462,22.9,462,32.64V38h9V32.64Z" transform="translate(-2 -1.29)"/><polygon class="cls-1" points="45 32.71 45 25.71 63 25.71 63 16.71 36 16.71 36 36.91 61 36.86 61 32.71 45 32.71"/><polygon class="cls-1" points="36 63.71 63 63.71 63 55.71 45 55.71 45 47.71 61 47.71 61 43.86 36 43.91 36 63.71"/><path class="cls-1" d="M321,17h0v9h0c4.43,0,7,1.86,7,5.34V38h9V31.34C337,23.19,330.34,17,321,17Z" transform="translate(-2 -1.29)"/><path class="cls-1" d="M308,31.34c0-3.42,1.58-5.14,6-5.2v-8.8c-9.33,0-16,5.79-16,14v6.35l10,0V31.34Z" transform="translate(-2 -1.29)"/><path class="cls-1" d="M314.09,57.07c-4.19,0-6.09-1.89-6.09-5.26V44.67l-10,0v7.12c0,8.21,6.51,14.06,15.78,14.06H314V57S314.2,57.07,314.09,57.07Z" transform="translate(-2 -1.29)"/><path class="cls-1" d="M328,51.81c0,3.27-3,5.14-7,5.24v8.81c9-.14,16-6,16-14V45h-9v6.81Z" transform="translate(-2 -1.29)"/><circle class="cls-4" cx="316" cy="40.71" r="5.33"/></svg>