<svg id="Layer_1" xmlns="http://www.w3.org/2000/svg" viewBox="0 0 985 205"><style>.st0{fill:#CD926D;} .st1{fill:none;stroke:#D1926D;stroke-width:3;stroke-miterlimit:10;}</style><path class="st0" d="M541 203H411c-3.7-2.5-4.5-6.1-4.5-10.4.1-20.3.1-40.7.1-61V24.1c0-10.6 3.8-16.1 13.8-20.2.6-.2 1.1-.7 1.6-1h131c3.7 2.5 4.4 6.1 4.4 10.4-.1 55.1-.1 110.3-.1 165.5 0 1.8 0 3.7-.5 5.4-.7 2.6-2.7 4.7-5.4 4.4-2.8-.4-1.3-3.3-1.3-4.9-.1-55.5-.1-111-.1-166.4 0-7.5 1.2-6.8-7-6.8-38.5 0-77 .2-115.5-.2-7-.1-9.8 3.6-13.2 8.7 1.4.1 2.2.3 3 .2 4.9-.8 6.2 1.3 6 6-.4 9.8-.1 19.7-.1 29.5v13.7c3.5-3.9 6-6.5 8.2-9.4 1.5-2 2.6-1.8 4.3-.2 2.9 2.8 5.3 6.1 9.6 8.4V23.6c0-1.7 0-3.3.2-5 .2-1.8 1.2-3.1 3-3.6 1.9-.5 4.1-.5 4.9 1.3 1.4 3.3 4 2.9 6.6 2.9h74c9 0 10.9 1.9 10.9 10.8 0 54 0 108 .1 162 .2 4.4-.6 8.1-4 11z"/><path class="st1" d="M0 102.5h349m249 .5h387"/></svg>